<svg xmlns="http://www.w3.org/2000/svg" width="850" height="280" viewBox="0 0 850 280">
  <rect x="0" y="0" width="850" height="280" rx="12" ry="12" fill="#080c14"/>

    <path d="M 425.0 155.0 Q 425.0 155.0 429.9 155.7 Q 434.8 156.5 438.5 157.6 Q 442.1 158.8 444.2 160.3 Q 446.2 161.8 446.2 163.5 Q 446.2 165.2 444.0 167.0 Q 441.9 168.8 437.4 170.5 Q 433.0 172.2 426.3 173.7 L 419.6 175.1" fill="none" stroke="#00d4ff" stroke-width="2.0" opacity="0.50" stroke-linecap="round"/>
    <path d="M 419.6 175.1 Q 419.6 175.1 411.0 176.2 Q 402.3 177.3 392.1 177.9 Q 381.8 178.5 370.3 178.5 Q 358.9 178.5 346.9 177.7 Q 334.9 177.0 322.9 175.5 Q 311.0 174.0 299.8 171.8 Q 288.7 169.5 279.0 166.6 L 269.3 163.6" fill="none" stroke="#00d4ff" stroke-width="1.7" opacity="0.40" stroke-linecap="round"/>
    <path d="M 269.3 163.6 Q 269.3 163.6 261.9 159.9 Q 254.4 156.3 249.7 152.1 Q 245.1 147.9 243.8 143.3 Q 242.5 138.7 245.0 133.9 Q 247.5 129.1 254.0 124.3 Q 260.6 119.4 271.2 114.8 Q 281.9 110.2 296.6 106.0 L 311.3 101.8" fill="none" stroke="#00d4ff" stroke-width="1.4" opacity="0.30" stroke-linecap="round"/>
    <path d="M 311.3 101.8 Q 311.3 101.8 329.8 98.2 Q 348.2 94.6 370.0 91.9 Q 391.7 89.2 416.1 87.6 Q 440.4 85.9 466.6 85.5 Q 492.8 85.0 519.9 85.9 Q 547.0 86.7 573.9 88.9 Q 600.8 91.2 626.4 94.8 L 652.1 98.4" fill="none" stroke="#00d4ff" stroke-width="1.1" opacity="0.20" stroke-linecap="round"/>
    <path d="M 425.0 155.0 Q 425.0 155.0 422.1 156.3 Q 419.3 157.5 414.7 158.5 Q 410.2 159.4 404.3 160.0 Q 398.5 160.5 391.8 160.5 Q 385.2 160.5 378.2 159.9 Q 371.2 159.4 364.6 158.2 Q 357.9 157.1 352.1 155.3 L 346.4 153.6" fill="none" stroke="#ffb020" stroke-width="2.0" opacity="0.50" stroke-linecap="round"/>
    <path d="M 346.4 153.6 Q 346.4 153.6 342.1 151.4 Q 337.8 149.1 335.4 146.5 Q 333.1 143.8 333.2 140.9 Q 333.3 137.9 336.2 134.8 Q 339.1 131.7 344.9 128.6 Q 350.7 125.5 359.4 122.6 Q 368.2 119.8 379.8 117.3 L 391.5 114.8" fill="none" stroke="#ffb020" stroke-width="1.7" opacity="0.40" stroke-linecap="round"/>
    <path d="M 391.5 114.8 Q 391.5 114.8 405.7 112.8 Q 419.9 110.9 436.3 109.7 Q 452.6 108.5 470.6 108.2 Q 488.5 107.8 507.3 108.5 Q 526.1 109.1 545.0 110.8 Q 563.9 112.5 582.0 115.3 Q 600.1 118.0 616.5 121.8 L 633.0 125.6" fill="none" stroke="#ffb020" stroke-width="1.4" opacity="0.30" stroke-linecap="round"/>
    <path d="M 633.0 125.6 Q 633.0 125.6 646.9 130.4 Q 660.8 135.2 671.3 140.8 Q 681.9 146.4 688.4 152.7 Q 694.8 159.0 696.6 165.8 Q 698.4 172.5 695.1 179.5 Q 691.7 186.5 683.1 193.5 Q 674.4 200.4 660.3 207.1 L 646.2 213.7" fill="none" stroke="#ffb020" stroke-width="1.1" opacity="0.20" stroke-linecap="round"/>
    <path d="M 425.0 155.0 Q 425.0 155.0 420.2 154.2 Q 415.5 153.5 411.9 152.3 Q 408.3 151.1 406.3 149.5 Q 404.4 148.0 404.3 146.2 Q 404.3 144.5 406.5 142.6 Q 408.6 140.8 412.9 139.0 Q 417.3 137.3 423.7 135.8 L 430.2 134.2" fill="none" stroke="#a78bfa" stroke-width="2.0" opacity="0.50" stroke-linecap="round"/>
    <path d="M 430.2 134.2 Q 430.2 134.2 438.6 133.1 Q 447.1 132.0 457.1 131.3 Q 467.1 130.7 478.2 130.8 Q 489.4 130.8 501.1 131.5 Q 512.8 132.3 524.4 133.8 Q 536.1 135.4 546.9 137.7 Q 557.8 140.0 567.2 143.1 L 576.6 146.1" fill="none" stroke="#a78bfa" stroke-width="1.7" opacity="0.40" stroke-linecap="round"/>
    <path d="M 576.6 146.1 Q 576.6 146.1 583.9 149.9 Q 591.2 153.7 595.7 158.0 Q 600.2 162.3 601.5 167.0 Q 602.8 171.8 600.3 176.7 Q 597.9 181.7 591.5 186.7 Q 585.2 191.7 574.8 196.5 Q 564.4 201.2 550.1 205.6 L 535.8 209.9" fill="none" stroke="#a78bfa" stroke-width="1.4" opacity="0.30" stroke-linecap="round"/>
    <path d="M 535.8 209.9 Q 535.8 209.9 517.8 213.6 Q 499.8 217.3 478.6 220.1 Q 457.4 222.8 433.7 224.5 Q 410.0 226.3 384.4 226.7 Q 358.9 227.2 332.6 226.3 Q 306.2 225.4 280.0 223.1 Q 253.8 220.9 228.8 217.1 L 203.8 213.4" fill="none" stroke="#a78bfa" stroke-width="1.1" opacity="0.20" stroke-linecap="round"/>
    <path d="M 425.0 155.0 Q 425.0 155.0 427.8 153.7 Q 430.5 152.4 434.9 151.5 Q 439.3 150.5 444.9 150.0 Q 450.5 149.4 457.0 149.4 Q 463.4 149.4 470.1 150.0 Q 476.8 150.6 483.2 151.7 Q 489.7 152.9 495.2 154.7 L 500.8 156.4" fill="none" stroke="#3b82f6" stroke-width="2.0" opacity="0.50" stroke-linecap="round"/>
    <path d="M 500.8 156.4 Q 500.8 156.4 504.9 158.7 Q 509.1 160.9 511.3 163.6 Q 513.5 166.3 513.4 169.3 Q 513.3 172.3 510.6 175.5 Q 507.8 178.6 502.2 181.8 Q 496.6 184.9 488.2 187.8 Q 479.7 190.7 468.5 193.3 L 457.3 195.8" fill="none" stroke="#3b82f6" stroke-width="1.7" opacity="0.40" stroke-linecap="round"/>
    <path d="M 457.3 195.8 Q 457.3 195.8 443.6 197.8 Q 429.9 199.7 414.1 200.9 Q 398.4 202.1 381.1 202.5 Q 363.8 202.8 345.7 202.2 Q 327.6 201.5 309.4 199.8 Q 291.2 198.1 273.7 195.3 Q 256.3 192.5 240.4 188.7 L 224.6 184.8" fill="none" stroke="#3b82f6" stroke-width="1.4" opacity="0.30" stroke-linecap="round"/>
    <path d="M 224.6 184.8 Q 224.6 184.8 211.2 180.0 Q 197.8 175.1 187.6 169.4 Q 177.5 163.7 171.3 157.3 Q 165.0 151.0 163.3 144.1 Q 161.6 137.2 164.8 130.1 Q 168.0 123.0 176.4 116.0 Q 184.7 108.9 198.3 102.2 L 211.9 95.5" fill="none" stroke="#3b82f6" stroke-width="1.1" opacity="0.20" stroke-linecap="round"/>
    <circle r="1.5" fill="#00d4ff" opacity="0.6">
      <animateMotion dur="12s" begin="0s" repeatCount="indefinite" path="M 425.0 155.0 Q 425.0 155.0 429.9 155.7 Q 434.8 156.5 438.5 157.6 Q 442.1 158.8 444.2 160.3 Q 446.2 161.8 446.2 163.5 Q 446.2 165.2 444.0 167.0 Q 441.9 168.8 437.4 170.5 Q 433.0 172.2 426.3 173.7 Q 419.6 175.1 411.0 176.2 Q 402.3 177.3 392.1 177.9 Q 381.8 178.5 370.3 178.5 Q 358.9 178.5 346.9 177.7 Q 334.9 177.0 322.9 175.5 Q 311.0 174.0 299.8 171.8 Q 288.7 169.5 279.0 166.6 Q 269.3 163.6 261.9 159.9 Q 254.4 156.3 249.7 152.1 Q 245.1 147.9 243.8 143.3 Q 242.5 138.7 245.0 133.9 Q 247.5 129.1 254.0 124.3 Q 260.6 119.4 271.2 114.8 Q 281.9 110.2 296.6 106.0 Q 311.3 101.8 329.8 98.2 Q 348.2 94.6 370.0 91.9 Q 391.7 89.2 416.1 87.6 Q 440.4 85.9 466.6 85.5 Q 492.8 85.0 519.9 85.9 Q 547.0 86.7 573.9 88.9 Q 600.8 91.2 626.4 94.8 Q 652.1 98.4 675.3 103.3 L 698.6 108.3"/>
    </circle>
    <circle r="1.5" fill="#00d4ff" opacity="0.6">
      <animateMotion dur="12s" begin="6s" repeatCount="indefinite" path="M 425.0 155.0 Q 425.0 155.0 429.9 155.7 Q 434.8 156.5 438.5 157.6 Q 442.1 158.8 444.2 160.3 Q 446.2 161.8 446.2 163.5 Q 446.2 165.2 444.0 167.0 Q 441.9 168.8 437.4 170.5 Q 433.0 172.2 426.3 173.7 Q 419.6 175.1 411.0 176.2 Q 402.3 177.3 392.1 177.9 Q 381.8 178.5 370.3 178.5 Q 358.9 178.5 346.9 177.7 Q 334.9 177.0 322.9 175.5 Q 311.0 174.0 299.8 171.8 Q 288.7 169.5 279.0 166.6 Q 269.3 163.6 261.9 159.9 Q 254.4 156.3 249.7 152.1 Q 245.1 147.9 243.8 143.3 Q 242.5 138.7 245.0 133.9 Q 247.5 129.1 254.0 124.3 Q 260.6 119.4 271.2 114.8 Q 281.9 110.2 296.6 106.0 Q 311.3 101.8 329.8 98.2 Q 348.2 94.6 370.0 91.9 Q 391.7 89.2 416.1 87.6 Q 440.4 85.9 466.6 85.5 Q 492.8 85.0 519.9 85.9 Q 547.0 86.7 573.9 88.9 Q 600.8 91.2 626.4 94.8 Q 652.1 98.4 675.3 103.3 L 698.6 108.3"/>
    </circle>
    <circle r="1.5" fill="#ffb020" opacity="0.6">
      <animateMotion dur="12s" begin="4s" repeatCount="indefinite" path="M 425.0 155.0 Q 425.0 155.0 422.1 156.3 Q 419.3 157.5 414.7 158.5 Q 410.2 159.4 404.3 160.0 Q 398.5 160.5 391.8 160.5 Q 385.2 160.5 378.2 159.9 Q 371.2 159.4 364.6 158.2 Q 357.9 157.1 352.1 155.3 Q 346.4 153.6 342.1 151.4 Q 337.8 149.1 335.4 146.5 Q 333.1 143.8 333.2 140.9 Q 333.3 137.9 336.2 134.8 Q 339.1 131.7 344.9 128.6 Q 350.7 125.5 359.4 122.6 Q 368.2 119.8 379.8 117.3 Q 391.5 114.8 405.7 112.8 Q 419.9 110.9 436.3 109.7 Q 452.6 108.5 470.6 108.2 Q 488.5 107.8 507.3 108.5 Q 526.1 109.1 545.0 110.8 Q 563.9 112.5 582.0 115.3 Q 600.1 118.0 616.5 121.8 Q 633.0 125.6 646.9 130.4 Q 660.8 135.2 671.3 140.8 Q 681.9 146.4 688.4 152.7 Q 694.8 159.0 696.6 165.8 Q 698.4 172.5 695.1 179.5 Q 691.7 186.5 683.1 193.5 Q 674.4 200.4 660.3 207.1 Q 646.2 213.7 626.9 219.7 L 607.6 225.7"/>
    </circle>
    <circle r="1.5" fill="#ffb020" opacity="0.6">
      <animateMotion dur="12s" begin="10s" repeatCount="indefinite" path="M 425.0 155.0 Q 425.0 155.0 422.1 156.3 Q 419.3 157.5 414.7 158.5 Q 410.2 159.4 404.3 160.0 Q 398.5 160.5 391.8 160.5 Q 385.2 160.5 378.2 159.9 Q 371.2 159.4 364.6 158.2 Q 357.9 157.1 352.1 155.3 Q 346.4 153.6 342.1 151.4 Q 337.8 149.1 335.4 146.5 Q 333.1 143.8 333.2 140.9 Q 333.3 137.9 336.2 134.8 Q 339.1 131.7 344.9 128.6 Q 350.7 125.5 359.4 122.6 Q 368.2 119.8 379.8 117.3 Q 391.5 114.8 405.7 112.8 Q 419.9 110.9 436.3 109.7 Q 452.6 108.5 470.6 108.2 Q 488.5 107.8 507.3 108.5 Q 526.1 109.1 545.0 110.8 Q 563.9 112.5 582.0 115.3 Q 600.1 118.0 616.5 121.8 Q 633.0 125.6 646.9 130.4 Q 660.8 135.2 671.3 140.8 Q 681.9 146.4 688.4 152.7 Q 694.8 159.0 696.6 165.8 Q 698.4 172.5 695.1 179.5 Q 691.7 186.5 683.1 193.5 Q 674.4 200.4 660.3 207.1 Q 646.2 213.7 626.9 219.7 L 607.6 225.7"/>
    </circle>
    <circle r="1.5" fill="#a78bfa" opacity="0.6">
      <animateMotion dur="12s" begin="8s" repeatCount="indefinite" path="M 425.0 155.0 Q 425.0 155.0 420.2 154.2 Q 415.5 153.5 411.9 152.3 Q 408.3 151.1 406.3 149.5 Q 404.4 148.0 404.3 146.2 Q 404.3 144.5 406.5 142.6 Q 408.6 140.8 412.9 139.0 Q 417.3 137.3 423.7 135.8 Q 430.2 134.2 438.6 133.1 Q 447.1 132.0 457.1 131.3 Q 467.1 130.7 478.2 130.8 Q 489.4 130.8 501.1 131.5 Q 512.8 132.3 524.4 133.8 Q 536.1 135.4 546.9 137.7 Q 557.8 140.0 567.2 143.1 Q 576.6 146.1 583.9 149.9 Q 591.2 153.7 595.7 158.0 Q 600.2 162.3 601.5 167.0 Q 602.8 171.8 600.3 176.7 Q 597.9 181.7 591.5 186.7 Q 585.2 191.7 574.8 196.5 Q 564.4 201.2 550.1 205.6 Q 535.8 209.9 517.8 213.6 Q 499.8 217.3 478.6 220.1 Q 457.4 222.8 433.7 224.5 Q 410.0 226.3 384.4 226.7 Q 358.9 227.2 332.6 226.3 Q 306.2 225.4 280.0 223.1 Q 253.8 220.9 228.8 217.1 Q 203.8 213.4 181.2 208.3 L 158.5 203.2"/>
    </circle>
    <circle r="1.5" fill="#a78bfa" opacity="0.6">
      <animateMotion dur="12s" begin="14s" repeatCount="indefinite" path="M 425.0 155.0 Q 425.0 155.0 420.2 154.2 Q 415.5 153.5 411.9 152.3 Q 408.3 151.1 406.3 149.5 Q 404.4 148.0 404.3 146.2 Q 404.3 144.5 406.5 142.6 Q 408.6 140.8 412.9 139.0 Q 417.3 137.3 423.7 135.8 Q 430.2 134.2 438.6 133.1 Q 447.1 132.0 457.1 131.3 Q 467.1 130.7 478.2 130.8 Q 489.4 130.8 501.1 131.5 Q 512.8 132.3 524.4 133.8 Q 536.1 135.4 546.9 137.7 Q 557.8 140.0 567.2 143.1 Q 576.6 146.1 583.9 149.9 Q 591.2 153.7 595.7 158.0 Q 600.2 162.3 601.5 167.0 Q 602.8 171.8 600.3 176.7 Q 597.9 181.7 591.5 186.7 Q 585.2 191.7 574.8 196.5 Q 564.4 201.2 550.1 205.6 Q 535.8 209.9 517.8 213.6 Q 499.8 217.3 478.6 220.1 Q 457.4 222.8 433.7 224.5 Q 410.0 226.3 384.4 226.7 Q 358.9 227.2 332.6 226.3 Q 306.2 225.4 280.0 223.1 Q 253.8 220.9 228.8 217.1 Q 203.8 213.4 181.2 208.3 L 158.5 203.2"/>
    </circle>
    <circle r="1.5" fill="#3b82f6" opacity="0.6">
      <animateMotion dur="12s" begin="12s" repeatCount="indefinite" path="M 425.0 155.0 Q 425.0 155.0 427.8 153.7 Q 430.5 152.4 434.9 151.5 Q 439.3 150.5 444.9 150.0 Q 450.5 149.4 457.0 149.4 Q 463.4 149.4 470.1 150.0 Q 476.8 150.6 483.2 151.7 Q 489.7 152.9 495.2 154.7 Q 500.8 156.4 504.9 158.7 Q 509.1 160.9 511.3 163.6 Q 513.5 166.3 513.4 169.3 Q 513.3 172.3 510.6 175.5 Q 507.8 178.6 502.2 181.8 Q 496.6 184.9 488.2 187.8 Q 479.7 190.7 468.5 193.3 Q 457.3 195.8 443.6 197.8 Q 429.9 199.7 414.1 200.9 Q 398.4 202.1 381.1 202.5 Q 363.8 202.8 345.7 202.2 Q 327.6 201.5 309.4 199.8 Q 291.2 198.1 273.7 195.3 Q 256.3 192.5 240.4 188.7 Q 224.6 184.8 211.2 180.0 Q 197.8 175.1 187.6 169.4 Q 177.5 163.7 171.3 157.3 Q 165.0 151.0 163.3 144.1 Q 161.6 137.2 164.8 130.1 Q 168.0 123.0 176.4 116.0 Q 184.7 108.9 198.3 102.2 Q 211.9 95.5 230.5 89.4 L 249.1 83.3"/>
    </circle>
    <circle r="1.5" fill="#3b82f6" opacity="0.6">
      <animateMotion dur="12s" begin="18s" repeatCount="indefinite" path="M 425.0 155.0 Q 425.0 155.0 427.8 153.7 Q 430.5 152.4 434.9 151.5 Q 439.3 150.5 444.9 150.0 Q 450.5 149.4 457.0 149.4 Q 463.4 149.4 470.1 150.0 Q 476.8 150.6 483.2 151.7 Q 489.7 152.9 495.2 154.7 Q 500.8 156.4 504.9 158.7 Q 509.1 160.9 511.3 163.6 Q 513.5 166.3 513.4 169.3 Q 513.3 172.3 510.6 175.5 Q 507.8 178.6 502.2 181.8 Q 496.6 184.9 488.2 187.8 Q 479.7 190.7 468.5 193.3 Q 457.3 195.8 443.6 197.8 Q 429.9 199.7 414.1 200.9 Q 398.4 202.1 381.1 202.5 Q 363.8 202.8 345.7 202.2 Q 327.6 201.5 309.4 199.8 Q 291.2 198.1 273.7 195.3 Q 256.3 192.5 240.4 188.7 Q 224.6 184.8 211.2 180.0 Q 197.8 175.1 187.6 169.4 Q 177.5 163.7 171.3 157.3 Q 165.0 151.0 163.3 144.1 Q 161.6 137.2 164.8 130.1 Q 168.0 123.0 176.4 116.0 Q 184.7 108.9 198.3 102.2 Q 211.9 95.5 230.5 89.4 L 249.1 83.3"/>
    </circle>

  <circle cx="425" cy="155" r="40" fill="#00d4ff" opacity="0.08"/>
  <circle cx="425" cy="155" r="20" fill="#0f1623" stroke="#1a2332" stroke-width="0.5"/>
  <text x="425" y="160" text-anchor="middle" fill="#00d4ff" font-size="14" font-family="monospace">A</text>

  <text x="425" y="26" text-anchor="middle" fill="#f1f5f9" font-size="20" font-weight="bold" font-family="sans-serif">Albano Nebula</text>
  <text x="425" y="44" text-anchor="middle" fill="#94a3b8" font-size="12" font-family="sans-serif">Software Engineer | Distributed Systems | Cloud Security</text>
  <text x="425" y="268" text-anchor="middle" fill="#64748b" font-size="11" font-family="monospace" font-style="italic">&quot;Build simple. Scale smart. Secure by design.&quot;</text>
</svg>